<svg width="362" height="920" viewBox="0 0 362 920" fill="none" xmlns="http://www.w3.org/2000/svg">
<rect width="362" height="920" fill="#1F497D"/>
<rect width="362" height="920" fill="white" fill-opacity="0.12"/>
<path fill-rule="evenodd" clip-rule="evenodd" d="M0 0H362V31H282.4C269.463 31.0157 258.379 35.6268 249.147 44.8335C239.916 54.0401 235.3 65.1132 235.3 78.0526V125.105H141.1C128.163 125.121 117.079 129.732 107.847 138.939C98.6158 148.145 94 159.218 94 172.158V430.947C94.0157 443.902 98.6315 454.983 107.847 464.19C117.063 473.397 128.147 478 141.1 478H362V920H0V882.292H259.75C269.96 882.304 278.693 878.676 285.949 871.408C293.205 864.139 296.833 855.406 296.833 845.208V641.25C296.846 631.064 293.218 622.337 285.949 615.069C278.681 607.801 269.948 604.167 259.75 604.167H185.583V567.083C185.596 556.898 181.968 548.171 174.699 540.903C167.431 533.634 158.698 530 148.5 530H74.3333C64.1478 530.012 55.4208 533.647 48.1525 540.903C40.8842 548.158 37.25 556.885 37.25 567.083V604.167H0V0ZM0 845.208V641.25H259.75V845.208H0ZM282.4 78.0526H362V125.105H282.4V78.0526ZM141.1 172.158H362V430.947H141.1V172.158ZM148.5 604.167H74.3333V567.083H148.5V604.167Z" fill="#1F497D"/>
</svg>
