<svg width="362" height="920" viewBox="0 0 362 920" fill="none" xmlns="http://www.w3.org/2000/svg">
<rect width="362" height="920" fill="#1F497D"/>
<rect width="362" height="920" fill="white" fill-opacity="0.12"/>
<path fill-rule="evenodd" clip-rule="evenodd" d="M0 0H362V702H153.8C129.16 702 109 722.194 109 746.875V920H0V542H243.4C273.98 542 299 516.969 299 486.375V152.625C299 122.031 273.98 97 243.4 97H0V0ZM0 278.557V152.625H243.4L21 291.688L0 278.557ZM0 486.375V334.182L21 347.312L243.4 208.25V486.375H0ZM153.8 746.875H362V840.907L333 859.062L153.8 746.875ZM333 903.938L362 885.782V920H153.8V791.75L333 903.938Z" fill="#1F497D"/>
</svg>
