<svg width="205" height="150" viewBox="0 0 205 150" fill="none" xmlns="http://www.w3.org/2000/svg">
<path fill-rule="evenodd" clip-rule="evenodd" d="M161.408 0.000238638L161.414 0.00340843L108.038 92.4522C101.756 104.325 89.2781 112.414 74.9108 112.414C54.2249 112.414 37.4556 95.6447 37.4556 74.9587C37.4556 54.6822 53.5676 38.1689 73.6872 37.5231L73.6613 37.4782L107.762 37.4782L129.4 0.000237746L74.9113 0.000236229L74.9391 0.0482548L74.9105 0.0482494C33.5386 0.0482494 0 33.5868 0 74.9587C0 116.331 33.5386 149.869 74.9105 149.869C103.486 149.869 128.324 133.869 140.956 110.34L204.66 0.000239842L161.408 0.000238638Z" fill="#1F497D"/>
</svg>